<?xml version="1.0" encoding="UTF-8"?>
<!-- Created with Inkscape (http://www.inkscape.org/) -->
<svg width="512" height="512" version="1.1" viewBox="0 0 135.47 135.47" xmlns="http://www.w3.org/2000/svg">
 <g stroke-linecap="square" stroke-linejoin="round">
  <path d="m8.615-2.4023e-6h118.24c4.7727 0 8.615 3.8423 8.615 8.615v118.24c0 4.7727-3.8423 8.615-8.615 8.615h-118.24c-4.7727 0-8.615-3.8423-8.615-8.615v-118.24c0-4.7727 3.8423-8.615 8.615-8.615z" fill="#156bb2" stroke-opacity=".0010919" stroke-width=".17024"/>
  <path transform="scale(.26458)" d="m216.48 13.43c-35.539-1e-6 -95.187 26.021-92.881 97.887h0.41601c7.3664-102.6 146.19-92.204 146.19 5.3203 0 45.958-20.077 89.821-55.641 122.59-56.572 52.133-163.66 102.27-164.24 186.2-0.34549 49.892 42.711 72.71 74.326 73.131 31.615 0.42127 70.603-24.334 73.586-73.154l-0.76953-2e-3c-10.468 78.115-104.7 59.687-104.7 0.0254 0-49.434 53.818-109.25 107.93-162.91-11.599 21.071-18.174 45.238-18.174 70.836 0 76.256 58.284 139.86 134.25 146.51s144.41-45.873 157.65-120.97l-0.56641-0.10156c-39.231 123.68-205.37 90.099-204.85-26.293s165.35-145.44 204.84-24.744l0.58008 0.0625c-13.242-75.097-81.687-127.62-157.65-120.97-15.149 1.3254-29.591 4.9213-43.012 10.426 20.046-20.945 37.656-47.835 37.656-80.641 0-74.871-59.4-103.21-94.939-103.21zm-108.28 129.85c-34.989 0.28545-65.558 25.496-71.744 60.58 0 0 0.09333-0.0248 0.43555-0.10938 22.082-64.533 103.64-41.923 102.43 14.207-1.2063 56.13-82.54 72.46-102.34 11.482-0.17788-0.0993-0.27167-0.16853-0.33398-0.22461-0.0181 0.0417-0.0517 0.0896-0.14062 0.14648 6.5987 37.423 40.884 63.529 78.74 60.217 37.856-3.312 66.9-35.009 66.9-73.01 0-38-29.045-69.698-66.9-73.01-2.366-0.207-4.7182-0.29833-7.0508-0.2793zm-71.549 85.936c0.06687-0.15395-0.20684-0.18615 0 0z" color="#000000" fill="#fff" stroke-width="9.3857" style="-inkscape-stroke:none"/>
  <circle transform="scale(-1,1)" cx="-23.106" cy="57.301" r="13.711" color="#000000" display="none" stroke="#000" stroke-width=".091886"/>
 </g>
</svg>
